<svg width="430" height="64" viewBox="0 0 430 64" fill="none" xmlns="http://www.w3.org/2000/svg">
<path d="M67.2742 24.4097C67.8783 24.4097 68.4513 24.5217 68.9929 24.7456C69.5346 24.9644 70.0138 25.3081 70.4304 25.7769C70.8523 26.2404 71.183 26.8368 71.4226 27.5659C71.6622 28.2899 71.782 29.1623 71.782 30.1831V30.1988C71.782 31.4644 71.5997 32.5477 71.2351 33.4488C70.8705 34.3498 70.3471 35.0425 69.6648 35.5269C68.9877 36.0061 68.1778 36.2456 67.2351 36.2456C66.5424 36.2456 65.9174 36.1206 65.3601 35.8706C64.808 35.6154 64.3497 35.2665 63.9851 34.8238C63.6257 34.3758 63.3836 33.8654 63.2586 33.2925L63.2429 33.2066H65.2195L65.2507 33.2847C65.3497 33.5451 65.4903 33.7743 65.6726 33.9722C65.8601 34.1701 66.0841 34.3238 66.3445 34.4331C66.6101 34.5373 66.907 34.5894 67.2351 34.5894C67.8289 34.5894 68.3132 34.4149 68.6882 34.0659C69.0685 33.7118 69.3523 33.2404 69.5398 32.6519C69.7325 32.0581 69.8419 31.4019 69.8679 30.6831C69.8731 30.605 69.8757 30.5295 69.8757 30.4566C69.8757 30.3784 69.8757 30.3029 69.8757 30.23L69.5242 28.3472C69.5242 27.9201 69.4252 27.5321 69.2273 27.1831C69.0294 26.8342 68.7612 26.5581 68.4226 26.355C68.0893 26.1519 67.7117 26.0503 67.2898 26.0503C66.8836 26.0503 66.5112 26.1493 66.1726 26.3472C65.8341 26.5451 65.5632 26.8159 65.3601 27.1597C65.157 27.4982 65.0554 27.8784 65.0554 28.3003V28.3159C65.0554 28.7534 65.1518 29.1415 65.3445 29.48C65.5372 29.8133 65.8002 30.0764 66.1336 30.2691C66.4669 30.4618 66.8471 30.5581 67.2742 30.5581C67.7013 30.5581 68.0841 30.4644 68.4226 30.2769C68.7612 30.0894 69.0294 29.829 69.2273 29.4956C69.4252 29.1623 69.5242 28.7847 69.5242 28.3628V28.3472H69.9929V30.4253H69.7195C69.5841 30.7222 69.3836 30.9982 69.1179 31.2534C68.8523 31.5087 68.5242 31.7144 68.1336 31.8706C67.7481 32.0269 67.295 32.105 66.7742 32.105C66.0554 32.105 65.42 31.9436 64.8679 31.6206C64.3158 31.2977 63.881 30.855 63.5632 30.2925C63.2507 29.73 63.0945 29.0946 63.0945 28.3863V28.3706C63.0945 27.605 63.2716 26.9253 63.6257 26.3316C63.9851 25.7326 64.4799 25.2639 65.1101 24.9253C65.7455 24.5816 66.4669 24.4097 67.2742 24.4097ZM75.0089 34.4488C74.6547 34.4488 74.3578 34.3316 74.1182 34.0972C73.8839 33.8576 73.7667 33.5659 73.7667 33.2222C73.7667 32.8732 73.8839 32.5816 74.1182 32.3472C74.3578 32.1076 74.6547 31.9878 75.0089 31.9878C75.3682 31.9878 75.6651 32.1076 75.8995 32.3472C76.1339 32.5816 76.2511 32.8732 76.2511 33.2222C76.2511 33.5659 76.1339 33.8576 75.8995 34.0972C75.6651 34.3316 75.3682 34.4488 75.0089 34.4488ZM75.0089 28.6519C74.6547 28.6519 74.3578 28.5347 74.1182 28.3003C73.8839 28.0607 73.7667 27.7691 73.7667 27.4253C73.7667 27.0764 73.8839 26.7847 74.1182 26.5503C74.3578 26.3107 74.6547 26.1909 75.0089 26.1909C75.3682 26.1909 75.6651 26.3107 75.8995 26.5503C76.1339 26.7847 76.2511 27.0764 76.2511 27.4253C76.2511 27.7691 76.1339 28.0607 75.8995 28.3003C75.6651 28.5347 75.3682 28.6519 75.0089 28.6519ZM83.7045 35.9644V33.8003H78.1889V32.1519C78.4857 31.6467 78.7826 31.1389 79.0795 30.6284C79.3816 30.118 79.6863 29.6102 79.9936 29.105C80.3061 28.5946 80.616 28.092 80.9232 27.5972C81.2357 27.0972 81.5456 26.605 81.8529 26.1206C82.1654 25.6311 82.4779 25.1545 82.7904 24.6909H85.6264V32.1363H87.1498V33.8003H85.6264V35.9644H83.7045ZM80.0639 32.1831H83.7357V26.3003H83.6186C83.3894 26.6545 83.1524 27.0191 82.9076 27.3941C82.668 27.7691 82.4258 28.1519 82.1811 28.5425C81.9363 28.9331 81.6941 29.3264 81.4545 29.7222C81.2149 30.1128 80.9779 30.5061 80.7436 30.9019C80.5092 31.2925 80.2826 31.6805 80.0639 32.0659V32.1831ZM91.4939 35.9644V26.6753H91.3532L88.5486 28.6519V26.7613L91.4939 24.6909H93.5017V35.9644H91.4939Z" fill="white"/>
<rect x="146.616" y="11.7583" width="136.768" height="40.4835" rx="20.2417" fill="white"/>
<rect x="145.684" y="10.9695" width="87.5318" height="40.4835" rx="20.2417" fill="white"/>
<rect x="241.969" y="10.9695" width="40.4835" height="40.4835" rx="20.2417" fill="white"/>
<path d="M318.725 28.1705C318.725 27.5662 319.215 27.0763 319.819 27.0763H320.913C321.517 27.0763 322.007 27.5662 322.007 28.1705V36.9237C322.007 37.5279 321.517 38.0178 320.913 38.0178H319.819C319.215 38.0178 318.725 37.5279 318.725 36.9237V28.1705Z" fill="white"/>
<path d="M324.195 25.9822C324.195 25.3779 324.685 24.888 325.29 24.888H326.384C326.988 24.888 327.478 25.3779 327.478 25.9822V36.9237C327.478 37.5279 326.988 38.0178 326.384 38.0178H325.29C324.685 38.0178 324.195 37.5279 324.195 36.9237V25.9822Z" fill="white"/>
<path d="M313.254 32C313.254 31.3957 313.744 30.9058 314.348 30.9058H315.442C316.047 30.9058 316.536 31.3957 316.536 32V36.9237C316.536 37.5279 316.047 38.0178 315.442 38.0178H314.348C313.744 38.0178 313.254 37.5279 313.254 36.9237V32Z" fill="white"/>
<path d="M307.783 34.7354C307.783 34.1311 308.273 33.6412 308.877 33.6412H309.971C310.576 33.6412 311.066 34.1311 311.066 34.7354V36.9237C311.066 37.5279 310.576 38.0178 309.971 38.0178H308.877C308.273 38.0178 307.783 37.5279 307.783 36.9237V34.7354Z" fill="white"/>
<path d="M342.921 34.6466C344.475 33.3054 346.751 33.3056 348.304 34.6466C348.382 34.7188 348.428 34.8213 348.43 34.9289C348.432 35.0362 348.391 35.1398 348.316 35.215L345.883 37.7209C345.812 37.7945 345.714 37.8361 345.613 37.8361C345.511 37.836 345.415 37.7944 345.343 37.7209L342.91 35.215C342.835 35.1397 342.793 35.0361 342.795 34.9289C342.798 34.8214 342.843 34.7187 342.921 34.6466ZM339.633 31.6476C342.98 28.47 348.163 28.47 351.51 31.6476C351.586 31.7221 351.629 31.8247 351.63 31.9318C351.631 32.039 351.59 32.1428 351.516 32.2189L350.11 33.6691C349.965 33.817 349.731 33.82 349.583 33.6759C348.483 32.6601 347.053 32.0978 345.571 32.0978C344.089 32.0984 342.659 32.6607 341.561 33.6759C341.412 33.8199 341.179 33.8171 341.034 33.6691L339.627 32.2189C339.553 32.1429 339.512 32.0391 339.513 31.9318C339.514 31.8247 339.558 31.7221 339.633 31.6476ZM336.348 28.6545C341.482 23.6326 349.581 23.6326 354.714 28.6545C354.789 28.729 354.831 28.8304 354.832 28.9367C354.832 29.0431 354.791 29.1454 354.717 29.2209L353.31 30.672C353.165 30.8208 352.929 30.8224 352.782 30.6759C350.826 28.7779 348.231 27.719 345.532 27.7189C342.833 27.7189 340.237 28.7777 338.281 30.6759C338.134 30.8226 337.897 30.821 337.752 30.672L336.344 29.2209C336.271 29.1454 336.23 29.0429 336.231 28.9367C336.232 28.8304 336.274 28.7289 336.348 28.6545Z" fill="white"/>
<path opacity="0.35" d="M367.962 24.7759H387.02C389.135 24.7761 390.849 26.4911 390.849 28.606V34.0767C390.849 36.1913 389.135 37.9055 387.02 37.9058H367.962C365.847 37.9058 364.132 36.1915 364.132 34.0767V28.606C364.132 26.491 365.847 24.7759 367.962 24.7759Z" stroke="white" stroke-width="1.09415"/>
<path opacity="0.4" d="M392.49 29.6997V34.3174C393.419 33.9263 394.024 33.0165 394.024 32.0086C394.024 31.0006 393.419 30.0908 392.49 29.6997" fill="white"/>
<path d="M365.773 28.6056C365.773 27.397 366.753 26.4173 367.961 26.4173H387.02C388.228 26.4173 389.208 27.397 389.208 28.6056V34.0763C389.208 35.2849 388.228 36.2646 387.02 36.2646H367.961C366.753 36.2646 365.773 35.2849 365.773 34.0763V28.6056Z" fill="white"/>
</svg>
